<svg width="24" height="24" viewBox="0 0 24 24" fill="none" xmlns="http://www.w3.org/2000/svg">
<path d="M8.99999 18.75C8.99999 18.5511 9.07901 18.3604 9.21966 18.2197C9.36032 18.0791 9.55108 18 9.74999 18H14.25C14.4489 18 14.6397 18.0791 14.7803 18.2197C14.921 18.3604 15 18.5511 15 18.75C15 18.949 14.921 19.1397 14.7803 19.2804C14.6397 19.421 14.4489 19.5 14.25 19.5H9.74999C9.55108 19.5 9.36032 19.421 9.21966 19.2804C9.07901 19.1397 8.99999 18.949 8.99999 18.75ZM4.49999 12.093C4.49999 10.14 6.35249 8.64755 8.29499 8.82905C10.7596 9.05907 13.2404 9.05907 15.705 8.82905C17.6475 8.64755 19.5 10.14 19.5 12.093V13.8285C19.5061 14.1604 19.3941 14.4837 19.1839 14.7406C18.9737 14.9975 18.679 15.1713 18.3525 15.231C17.085 15.4515 14.8425 15.75 12 15.75C9.15749 15.75 6.91499 15.45 5.64749 15.231C5.32097 15.1713 5.0263 14.9975 4.8161 14.7406C4.60591 14.4837 4.49387 14.1604 4.49999 13.8285V12.093ZM11.313 10.8525C11.2545 10.8426 11.1946 10.8467 11.138 10.8644C11.0814 10.8821 11.0298 10.913 10.9875 10.9545L9.60749 12.3045C8.66886 12.2486 7.73268 12.157 6.80099 12.03C6.70445 12.0205 6.60794 12.0487 6.53175 12.1087C6.45555 12.1688 6.40561 12.2561 6.3924 12.3522C6.3792 12.4483 6.40376 12.5458 6.46094 12.6242C6.51811 12.7026 6.60344 12.7557 6.69899 12.7725C7.52399 12.8865 8.54699 12.996 9.72899 13.062C9.78106 13.065 9.83316 13.057 9.88197 13.0387C9.93079 13.0203 9.97524 12.992 10.0125 12.9555L11.1435 11.8515L12.414 14.4165C12.4408 14.4704 12.4801 14.5169 12.5286 14.5524C12.5771 14.5878 12.6335 14.6111 12.6929 14.6202C12.7523 14.6293 12.813 14.624 12.8699 14.6048C12.9269 14.5855 12.9783 14.5529 13.02 14.5095L14.418 13.0545C15.3822 12.9973 16.3439 12.9032 17.301 12.7725C17.3966 12.7557 17.4819 12.7026 17.5391 12.6242C17.5962 12.5458 17.6208 12.4483 17.6076 12.3522C17.5944 12.2561 17.5444 12.1688 17.4682 12.1087C17.3921 12.0487 17.2955 12.0205 17.199 12.03C16.392 12.141 15.3885 12.2475 14.229 12.3135C14.1346 12.3188 14.0457 12.3595 13.98 12.4275L12.849 13.605L11.586 11.055C11.5597 11.0022 11.5212 10.9563 11.4738 10.9211C11.4263 10.8859 11.3712 10.8624 11.313 10.8525Z" fill="#70A3F3"/>
<path d="M12.75 2.79904C13.036 2.63394 13.2595 2.37909 13.3858 2.07403C13.5122 1.76896 13.5344 1.43072 13.4489 1.11177C13.3634 0.792821 13.1751 0.510984 12.9131 0.30997C12.6512 0.108956 12.3302 0 12 0C11.6698 0 11.3488 0.108956 11.0869 0.30997C10.8249 0.510984 10.6366 0.792821 10.5511 1.11177C10.4656 1.43072 10.4878 1.76896 10.6142 2.07403C10.7405 2.37909 10.964 2.63394 11.25 2.79904V4.50004H8.25C6.45979 4.50004 4.7429 5.2112 3.47703 6.47707C2.21116 7.74294 1.5 9.45983 1.5 11.25V12C1.10218 12 0.720644 12.1581 0.43934 12.4394C0.158035 12.7207 0 13.1022 0 13.5L0 16.5C0 16.8979 0.158035 17.2794 0.43934 17.5607C0.720644 17.842 1.10218 18 1.5 18V19.5C1.5 20.2957 1.81607 21.0588 2.37868 21.6214C2.94129 22.184 3.70435 22.5 4.5 22.5H19.5C20.2956 22.5 21.0587 22.184 21.6213 21.6214C22.1839 21.0588 22.5 20.2957 22.5 19.5V18C22.8978 18 23.2794 17.842 23.5607 17.5607C23.842 17.2794 24 16.8979 24 16.5V13.5C24 13.1022 23.842 12.7207 23.5607 12.4394C23.2794 12.1581 22.8978 12 22.5 12V11.25C22.5 9.45983 21.7888 7.74294 20.523 6.47707C19.2571 5.2112 17.5402 4.50004 15.75 4.50004H12.75V2.79904ZM21 11.25V19.5C21 19.8979 20.842 20.2794 20.5607 20.5607C20.2794 20.842 19.8978 21 19.5 21H4.5C4.10218 21 3.72064 20.842 3.43934 20.5607C3.15804 20.2794 3 19.8979 3 19.5V11.25C3 9.85765 3.55312 8.52229 4.53769 7.53773C5.52226 6.55316 6.85761 6.00004 8.25 6.00004H15.75C17.1424 6.00004 18.4777 6.55316 19.4623 7.53773C20.4469 8.52229 21 9.85765 21 11.25Z" fill="#70A3F3"/>
</svg>
